<svg width="22" height="22" viewBox="0 0 22 22" fill="none" xmlns="http://www.w3.org/2000/svg">
<path d="M5.1855 16.015H8.86231C8.97644 16.0157 9.08957 15.9938 9.19523 15.9507C9.30088 15.9075 9.39698 15.8439 9.47801 15.7636L15.4788 9.75406L17.9416 7.34332C18.0229 7.2627 18.0874 7.16679 18.1314 7.06112C18.1755 6.95545 18.1981 6.8421 18.1981 6.72763C18.1981 6.61315 18.1755 6.4998 18.1314 6.39413C18.0874 6.28846 18.0229 6.19255 17.9416 6.11193L14.2648 2.39176C14.1842 2.31048 14.0883 2.24597 13.9826 2.20195C13.8769 2.15792 13.7636 2.13525 13.6491 2.13525C13.5346 2.13525 13.4213 2.15792 13.3156 2.20195C13.2099 2.24597 13.114 2.31048 13.0334 2.39176L10.588 4.84586L4.56981 10.8554C4.48944 10.9364 4.42585 11.0325 4.3827 11.1381C4.33954 11.2438 4.31767 11.3569 4.31833 11.4711V15.1479C4.31833 15.3779 4.40969 15.5984 4.57232 15.7611C4.73495 15.9237 4.95551 16.015 5.1855 16.015ZM13.6491 4.23017L16.1032 6.68427L14.8718 7.91565L12.4177 5.46155L13.6491 4.23017ZM6.05267 11.8266L11.195 6.68427L13.6491 9.13837L8.50677 14.2807H6.05267V11.8266ZM19.0603 17.7494H3.45116C3.22117 17.7494 3.0006 17.8408 2.83797 18.0034C2.67535 18.166 2.58398 18.3866 2.58398 18.6166C2.58398 18.8466 2.67535 19.0671 2.83797 19.2297C3.0006 19.3924 3.22117 19.4837 3.45116 19.4837H19.0603C19.2903 19.4837 19.5108 19.3924 19.6734 19.2297C19.8361 19.0671 19.9274 18.8466 19.9274 18.6166C19.9274 18.3866 19.8361 18.166 19.6734 18.0034C19.5108 17.8408 19.2903 17.7494 19.0603 17.7494Z" fill="#434343"/>
</svg>
