<svg width="22" height="22" viewBox="0 0 22 22" fill="none" xmlns="http://www.w3.org/2000/svg">
<path d="M8.9413 16.0149C9.17129 16.0149 9.39186 15.9235 9.55449 15.7609C9.71711 15.5983 9.80848 15.3777 9.80848 15.1477V9.94469C9.80848 9.7147 9.71711 9.49413 9.55449 9.33151C9.39186 9.16888 9.17129 9.07752 8.9413 9.07752C8.71131 9.07752 8.49075 9.16888 8.32812 9.33151C8.16549 9.49413 8.07413 9.7147 8.07413 9.94469V15.1477C8.07413 15.3777 8.16549 15.5983 8.32812 15.7609C8.49075 15.9235 8.71131 16.0149 8.9413 16.0149ZM17.613 5.60883H14.1443V4.74165C14.1443 4.05169 13.8703 3.38998 13.3824 2.9021C12.8945 2.41422 12.2328 2.14014 11.5428 2.14014H9.80848C9.11851 2.14014 8.4568 2.41422 7.96892 2.9021C7.48104 3.38998 7.20696 4.05169 7.20696 4.74165V5.60883H3.73827C3.50828 5.60883 3.28771 5.70019 3.12508 5.86282C2.96246 6.02544 2.87109 6.24601 2.87109 6.476C2.87109 6.70599 2.96246 6.92656 3.12508 7.08918C3.28771 7.25181 3.50828 7.34317 3.73827 7.34317H4.60544V16.8821C4.60544 17.572 4.87953 18.2337 5.36741 18.7216C5.85529 19.2095 6.51699 19.4836 7.20696 19.4836H14.1443C14.8343 19.4836 15.496 19.2095 15.9839 18.7216C16.4718 18.2337 16.7459 17.572 16.7459 16.8821V7.34317H17.613C17.843 7.34317 18.0636 7.25181 18.2262 7.08918C18.3888 6.92656 18.4802 6.70599 18.4802 6.476C18.4802 6.24601 18.3888 6.02544 18.2262 5.86282C18.0636 5.70019 17.843 5.60883 17.613 5.60883ZM8.9413 4.74165C8.9413 4.51167 9.03267 4.2911 9.19529 4.12847C9.35792 3.96584 9.57849 3.87448 9.80848 3.87448H11.5428C11.7728 3.87448 11.9934 3.96584 12.156 4.12847C12.3186 4.2911 12.41 4.51167 12.41 4.74165V5.60883H8.9413V4.74165ZM15.0115 16.8821C15.0115 17.1121 14.9201 17.3326 14.7575 17.4953C14.5949 17.6579 14.3743 17.7492 14.1443 17.7492H7.20696C6.97697 17.7492 6.7564 17.6579 6.59377 17.4953C6.43115 17.3326 6.33978 17.1121 6.33978 16.8821V7.34317H15.0115V16.8821ZM12.41 16.0149C12.64 16.0149 12.8606 15.9235 13.0232 15.7609C13.1858 15.5983 13.2772 15.3777 13.2772 15.1477V9.94469C13.2772 9.7147 13.1858 9.49413 13.0232 9.33151C12.8606 9.16888 12.64 9.07752 12.41 9.07752C12.18 9.07752 11.9594 9.16888 11.7968 9.33151C11.6342 9.49413 11.5428 9.7147 11.5428 9.94469V15.1477C11.5428 15.3777 11.6342 15.5983 11.7968 15.7609C11.9594 15.9235 12.18 16.0149 12.41 16.0149Z" fill="#434343"/>
</svg>
